<?xml version="1.0" encoding="UTF-8" standalone="no"?>
<!-- Created with Inkscape (http://www.inkscape.org/) -->

<svg
   width="130mm"
   height="145mm"
   viewBox="0 0 130 145"
   version="1.1"
   id="svg5"
   xmlns="http://www.w3.org/2000/svg"
   xmlns:svg="http://www.w3.org/2000/svg">
  <defs
     id="defs2" />
  <g
     id="layer1">
    <path
       style="fill:#151515;fill-opacity:1;stroke:#000000;stroke-width:2;stroke-linecap:round;stroke-linejoin:round;stroke-dasharray:none;stroke-opacity:1"
       d="m 97.526914,116.40522 c 0,0 17.986436,10.38653 13.933146,13.93316 -4.05328,3.54662 -9.87987,0.75999 -11.14652,0.75999 -1.266646,0 -1.013316,6.07992 -4.053286,6.83991 -3.03996,0.75999 -4.30661,-3.03996 -6.079917,-3.03996 -1.77331,0 -6.33325,7.09324 -9.87988,7.09324 -3.54662,0 -2.02664,-21.78639 -2.02664,-21.78639 z"
       id="path8802-7" />
    <path
       style="fill:#151515;fill-opacity:1;stroke:#000000;stroke-width:2;stroke-linecap:round;stroke-linejoin:round;stroke-dasharray:none;stroke-opacity:1"
       d="m 30.906283,117.03855 c 0,0 -17.98644,10.38653 -13.93316,13.93316 4.05328,3.54662 9.87987,0.75999 11.14653,0.75999 1.26665,0 1.01332,6.07992 4.05328,6.83991 3.03996,0.75999 4.30661,-3.03996 6.07992,-3.03996 1.77331,0 6.33326,7.09324 9.87988,7.09324 3.54662,0 2.02664,-21.78639 2.02664,-21.78639 z"
       id="path8802" />
    <path
       style="fill:#a2a2a2;fill-opacity:1;stroke:#000000;stroke-width:2;stroke-linecap:round;stroke-linejoin:round;stroke-dasharray:none;stroke-opacity:1"
       d="m 99.037674,58.631265 c 0,0 29.294396,30.97403 28.372976,36.73288 -2.02664,12.666515 -30.399616,-12.41318 -30.399616,-12.41318 z"
       id="path8760-4" />
    <path
       style="fill:#a2a2a2;fill-opacity:1;stroke:#000000;stroke-width:2;stroke-linecap:round;stroke-linejoin:round;stroke-dasharray:none;stroke-opacity:1"
       d="m 30.906283,56.492625 c 0,0 -29.2944006,30.97403 -28.3729806,36.73288 2.02664,12.666515 30.3996206,-12.41318 30.3996206,-12.41318 z"
       id="path8760" />
    <path
       style="fill:#a2a2a2;fill-opacity:1;stroke:#000000;stroke-width:2;stroke-linecap:round;stroke-linejoin:round;stroke-dasharray:none;stroke-opacity:1"
       d="m 31.286273,54.845985 c 0,0 -16.97221,35.13978 -2.27997,60.799245 9.7428,17.01545 59.847694,18.78413 69.665801,1.13999 17.479776,-31.412955 -1.89998,-62.192565 -1.89998,-62.192565 z"
       id="path5544" />
    <path
       style="fill:#080808;fill-opacity:1;stroke-width:4.963;stroke-linecap:round;stroke-linejoin:round"
       d="m 33.790786,13.139499 c 15.74348,-15.1897819 46.637024,-15.7462219 64.045881,3.459694 16.282353,19.824702 12.549293,42.820212 -4.91603,50.563812 -11.665937,5.11494 -45.285851,5.66044 -56.535081,0.17913 -24.18298,-12.29321 -11.84386,-44.84334 -2.59477,-54.202636 z"
       id="path236" />
    <path
       style="fill:#e9e9e9;fill-opacity:1;stroke-width:4.963;stroke-linecap:round;stroke-linejoin:round"
       d="m 26.260366,44.172745 c 0,0 2.06137,-27.832291 10.94303,-28.466279 15.28967,-1.091401 19.50643,24.446369 19.50643,24.446369 0,0 -3.67093,6.0406 -0.75999,10.38653 2.36487,3.53068 9.246544,7.47323 9.246544,7.47323 0,0 4.47887,-2.9353 8.73989,-7.59989 3.52583,-3.85978 -1.26665,-10.63987 -1.26665,-10.63987 0,0 2.8621,-25.03899 16.46646,-24.066365 12.28857,0.878555 15.1953,27.602115 15.1953,27.602115 0,0 5.57777,8.75075 -5.442087,17.36398 -4.792066,3.74553 -18.896333,9.49659 -34.9767,9.18008 -25.288177,-0.49774 -33.499747,-7.96495 -36.715737,-12.60003 -3.90517,-5.62836 -0.93649,-13.07987 -0.93649,-13.07987 z"
       id="path3395" />
    <path
       style="fill:#000000;fill-opacity:1;stroke-width:4.963;stroke-linecap:round;stroke-linejoin:round"
       d="m 43.853316,36.740795 c 0.92419,-1.48618 2.52767,-1.62875 3.91595,-0.14685 1.37728,1.47016 2.24838,5.06922 0.75781,7.03703 -1.19467,1.57718 -3.41136,1.83337 -4.71821,0.0812 -1.43408,-1.92275 -1.22223,-4.93443 0.0444,-6.97136 z"
       id="path296" />
    <path
       style="fill:#000000;fill-opacity:1;stroke-width:4.963;stroke-linecap:round;stroke-linejoin:round"
       d="m 80.2338,35.479915 c 1.55782,-1.58992 2.83075,-1.32318 4.21902,0.15871 1.37729,1.47016 1.73994,5.07736 0.47329,6.59734 -1.26665,1.51998 -3.9995,1.77133 -5.17724,0.21557 -1.54803,-2.0449 -1.5094,-4.9362 0.48493,-6.97162 z"
       id="path296-3" />
    <path
       style="fill:#383838;fill-opacity:1;stroke:#000000;stroke-width:2;stroke-linecap:round;stroke-linejoin:round;stroke-dasharray:none;stroke-opacity:1"
       d="m 61.164836,44.253315 c 0,0 -4.35908,5.5714 -2.52244,9.18135 1.94949,3.83174 6.743984,7.42791 6.743984,7.42791 0,0 3.4422,-3.12829 5.30907,-6.80545 2.08997,-4.11662 -2.06374,-9.68033 -2.06374,-9.68033 z"
       id="path9225" />
  </g>
</svg>
