<?xml version="1.0" encoding="UTF-8" standalone="no"?>
<!-- Created with Inkscape (http://www.inkscape.org/) -->

<svg
   width="180mm"
   height="260mm"
   viewBox="0 0 180 260"
   version="1.1"
   id="svg5"
   xmlns="http://www.w3.org/2000/svg"
   xmlns:svg="http://www.w3.org/2000/svg">
  <defs
     id="defs2" />
  <g
     id="layer2"
     transform="translate(-7.5999054,-11.653188)">
    <path
       style="fill:#373737;fill-opacity:1;stroke:#000000;stroke-width:2;stroke-linecap:round;stroke-linejoin:round"
       d="m 131.48095,31.096279 c 6.73933,1.652505 15.58517,2.811366 24.3197,6.903246 5.91923,2.772989 11.52761,10.624501 11.52761,10.624501 0,0 -11.1096,-0.965126 -20.6475,-2.264604 -6.65377,-0.906534 -11.09998,0.56997 -14.94648,4.306613 -6.5375,6.350787 -5.88014,15.892392 -5.0666,19.759755 0.81354,3.867363 11.57032,20.854226 24.30822,39.04459 12.664,18.08482 32.11563,40.25472 32.09906,48.60396 -0.0291,14.67806 -59.90745,-27.84997 -84.921458,-26.58608 -27.454045,1.38716 -33.203885,22.44161 -74.591199,34.69634 -33.760716,9.9965 22.628908,-48.88236 32.932916,-91.958859 C 61.172315,54.672871 71.987147,17.354759 95.254742,15.9598 120.83796,14.426012 121.90765,28.748878 131.48095,31.096279 Z"
       id="path457" />
    <path
       style="opacity:1;fill:#e8e8e8;fill-opacity:1;stroke:#000000;stroke-width:2;stroke-linecap:round;stroke-linejoin:round"
       d="m 48.639393,246.99692 c 0,0 8.354313,1.2242 41.292819,1.26665 5.47439,-7.08489 3.1174,-23.45266 4.55415,-30.54375 4.63491,5.98301 -1.45451,17.94753 3.36183,30.11653 8.435098,2.81861 45.030018,-1.59941 45.030018,-1.59941 0,0 12.41394,-61.25829 9.37322,-96.26548 -2.77772,-31.97934 -9.49127,-49.09811 -24.44635,-64.979181 C 111.71118,67.901884 77.040265,68.534712 63.839206,83.472289 44.48831,105.36868 41.842349,120.04144 40.532827,155.2914 c -1.255214,33.78809 8.106566,91.70552 8.106566,91.70552 z"
       id="path307" />
    <path
       style="fill:#e4dc66;fill-opacity:1;stroke:none;stroke-width:2;stroke-linecap:round;stroke-linejoin:round;stroke-dasharray:none;stroke-opacity:1"
       d="m 66.119176,56.745959 c -8.906419,17.152746 -8.359896,35.846217 -8.359896,35.846217 0,0 22.600196,6.841525 38.379522,6.713248 15.579808,-0.126655 35.972878,-7.853233 35.972878,-7.853233 0,0 -0.3099,-4.983935 -6.20659,-12.159847 C 118.56992,70.365887 98.781102,68.149229 90.692202,65.105855 86.187233,63.410903 89.111865,42.973531 81.825645,41.799478 71.450091,40.127629 68.279436,52.585545 66.119176,56.745959 Z"
       id="path8948" />
    <path
       style="fill:#3f2203;fill-opacity:1;stroke:none;stroke-width:2.4525;stroke-linecap:round;stroke-linejoin:round;stroke-dasharray:none;stroke-opacity:1"
       d="m 108.2576,33.32482 c 0.11913,-1.982512 2.78578,-4.624047 4.55775,-4.624047 2.08054,0 5.46089,0.946786 5.32689,6.920158 -0.11559,5.154366 -2.30743,6.475571 -5.02928,6.413104 -2.66265,-0.06111 -5.10851,-4.495332 -4.85536,-8.709215 z"
       id="path11398" />
    <path
       style="fill:#fce6cd;fill-opacity:1;stroke:none;stroke-width:2;stroke-linecap:round;stroke-linejoin:round;stroke-dasharray:none;stroke-opacity:1"
       d="m 114.49756,31.894028 c 0.31083,-0.892053 1.55132,-1.055384 1.86672,0.223257 0.28138,1.140776 0.0416,2.049032 -0.8905,2.019616 -0.56618,-0.01787 -1.49268,-0.76068 -0.97622,-2.242873 z"
       id="path11454" />
    <path
       style="fill:#d6780d;fill-opacity:1;stroke:none;stroke-width:2;stroke-linecap:round;stroke-linejoin:round;stroke-dasharray:none;stroke-opacity:1"
       d="m 126.58514,37.170102 c 0,0 9.68705,3.239897 18.99038,4.918117 6.25006,1.127444 19.39735,5.252326 19.39735,5.252326 -3.43716,-1.025932 -9.82492,-1.119534 -18.96682,-2.849653 -8.0525,-1.52395 -16.04292,-5.345811 -19.42091,-7.32079 z"
       id="path11746" />
    <path
       style="fill:#d6780d;fill-opacity:1;stroke:none;stroke-width:2;stroke-linecap:round;stroke-linejoin:round;stroke-dasharray:none;stroke-opacity:1"
       d="m 81.057969,41.060139 c 8.440663,0.68816 7.669962,20.39485 7.669962,20.39485 0,0 -5.227186,-6.659422 -10.904424,-6.992492 -7.235054,-0.424462 -13.160028,6.068285 -13.160028,6.068285 2.223734,-13.878771 8.425037,-20.120385 16.39449,-19.470643 z"
       id="path11746-3" />
    <path
       style="opacity:1;fill:#373737;fill-opacity:1;stroke:#000000;stroke-width:2;stroke-linecap:round;stroke-linejoin:round;stroke-opacity:1"
       d="m 49.084585,246.68476 c 0,0 9.654959,-4.83162 20.340616,-4.33735 10.13347,0.46873 20.760342,5.91617 20.760342,5.91617 0,0 8.332936,14.88612 -4.351397,19.27746 -6.374893,2.20699 -6.291449,-5.56075 -10.330341,-5.87643 -3.66178,-0.28621 -4.878279,5.54757 -9.022637,4.99615 -4.466388,-0.59428 -3.401953,-5.98401 -8.468557,-6.744 -5.066604,-0.75999 -8.486561,5.95327 -12.793174,3.6733 -4.306615,-2.27998 3.865148,-16.9053 3.865148,-16.9053 z"
       id="path550" />
    <path
       style="fill:#373737;fill-opacity:1;stroke:#000000;stroke-width:2;stroke-linecap:round;stroke-linejoin:round;stroke-opacity:1"
       d="m 142.68455,246.43854 c 0,0 -12.78976,-4.83162 -23.47542,-4.33735 -10.13347,0.46873 -20.760338,5.91617 -20.760338,5.91617 0,0 -8.33294,14.88612 4.351388,19.27746 6.3749,2.20699 7.44506,-5.76353 11.4947,-5.87643 3.84091,-0.10708 5.3261,5.36844 9.47046,4.81702 4.46639,-0.59428 3.84979,-6.16314 8.91639,-6.92313 5.0666,-0.75999 7.32221,6.1324 11.62882,3.85243 4.30662,-2.27998 -1.626,-16.72617 -1.626,-16.72617 z"
       id="path550-2" />
  </g>
</svg>
