<?xml version="1.0" encoding="UTF-8" standalone="no"?>
<svg
   viewBox="0 0 640 512"
   version="1.1"
   id="svg2627"
   width="640"
   height="512"
   xmlns="http://www.w3.org/2000/svg"
   xmlns:svg="http://www.w3.org/2000/svg">
  <defs
     id="defs2631" />
  <!--! Font Awesome Free 6.2.1 by @fontawesome - https://fontawesome.com License - https://fontawesome.com/license/free (Icons: CC BY 4.0, Fonts: SIL OFL 1.1, Code: MIT License) Copyright 2022 Fonticons, Inc. -->
  <path
     d="M 301.1,34.8 C 312.6,40 320,51.4 320,64 v 384 c 0,12.6 -7.4,24 -18.9,29.2 -11.5,5.2 -25,3.1 -34.4,-5.3 L 131.8,352 H 64 C 28.7,352 0,323.3 0,288 v -64 c 0,-35.3 28.7,-64 64,-64 h 67.8 L 266.7,40.1 c 9.4,-8.4 22.9,-10.4 34.4,-5.3 z M 425,167 l 55,55 55,-55 c 9.4,-9.4 24.6,-9.4 33.9,0 9.3,9.4 9.4,24.6 0,33.9 l -55,55 55,55 c 9.4,9.4 9.4,24.6 0,33.9 -9.4,9.3 -24.6,9.4 -33.9,0 l -55,-55 -55,55 c -9.4,9.4 -24.6,9.4 -33.9,0 -9.3,-9.4 -9.4,-24.6 0,-33.9 l 55,-55 -55,-55 c -9.4,-9.4 -9.4,-24.6 0,-33.9 9.4,-9.3 24.6,-9.4 33.9,0 z"
     id="path2625"
     style="fill:#eeeeee;fill-opacity:1" />
</svg>
